<svg width="97" height="59" viewBox="0 0 97 59" fill="none" xmlns="http://www.w3.org/2000/svg">
<path d="M72.85 45.9L74.8 40.65L74.8 26.85L84.4 26.85L84.4 38.1L77.8 45.9L72.85 45.9ZM81.55 54.3L92.65 41.4L92.65 18.45L66.55 18.45L66.55 38.85L60.1 54.3L81.55 54.3ZM32.95 45.9L35.2 40.65L35.2 26.85L44.8 26.85L44.8 38.1L38.2 45.9L32.95 45.9ZM41.95 54.3L53.05 41.4L53.05 18.45L26.95 18.45L26.95 38.85L20.5 54.3L41.95 54.3ZM14.95 58.05L0.699992 42.6L8.65 23.4L8.65 0.149997L41.35 0.15L48.25 7.05L48.25 0.15L80.95 0.150003L96.4 14.7L96.4 42.75L83.2 58.05L54.55 58.05L49.3 51.45L43.6 58.05L14.95 58.05Z" fill="#3D8ACA"/>
</svg>
