<svg width="288" height="288" viewBox="0 0 288 288" fill="none" xmlns="http://www.w3.org/2000/svg">
<circle cx="144" cy="144" r="96" fill="#FFFBFB"/>
<path fill-rule="evenodd" clip-rule="evenodd" d="M65.0467 135.796C112.852 109.276 196.105 107.029 221.79 162.671C219.096 173.895 213.984 184.785 206.237 194.34C176.098 121.927 127.698 117.795 64.4641 137.841L64.8501 137.699C64.9098 137.087 64.9783 136.441 65.0467 135.796ZM64.4641 137.841C62.8965 138.364 61.4201 138.806 64.4641 137.841Z" fill="#3D8ACA"/>
<path fill-rule="evenodd" clip-rule="evenodd" d="M163.022 114.337C168.447 113.451 188.37 112.118 202.412 117.662C189.324 88.0282 155.746 72.4992 124.246 82.6057C104.971 88.7929 90.6508 103.258 83.8555 120.823C77.1493 123.112 70.9304 125.533 65.6259 127.918C71.2882 100.55 91.0979 76.9023 119.513 67.7854C161.491 54.3043 206.335 77.4272 219.71 119.502C222.052 126.871 223.268 134.287 223.457 141.638C210.896 128.876 182.237 113.827 163.022 114.337ZM79.6306 140.228C79.1688 147.929 80.0825 155.823 82.5651 163.578C89.3215 184.879 105.805 201.451 126.076 205.835C178.68 217.275 191.986 161.253 131.424 136.503C188.904 145.338 206.964 211.895 160.613 222.074C120.88 230.813 80.3897 207.948 67.7787 168.349C65.3048 160.56 64.0726 152.686 63.9972 144.911C69.0446 143.225 74.2782 141.623 79.6306 140.228Z" fill="#17253E"/>
</svg>
