<svg width="97" height="59" viewBox="0 0 97 59" fill="none" xmlns="http://www.w3.org/2000/svg">
<path d="M24.15 13.1L22.2 18.35V32.15H12.6V20.9L19.2 13.1H24.15ZM15.45 4.69999L4.35 17.6V40.55H30.45V20.15L36.9 4.69999H15.45ZM64.05 13.1L61.8 18.35V32.15H52.2V20.9L58.8 13.1H64.05ZM55.05 4.69999L43.95 17.6V40.55H70.05V20.15L76.5 4.69999H55.05ZM82.05 0.949994L96.3 16.4L88.35 35.6V58.85H55.65L48.75 51.95V58.85H16.05L0.6 44.3V16.25L13.8 0.949994H42.45L47.7 7.55L53.4 0.949994H82.05Z" fill="#3D8ACA"/>
</svg>
