<svg width="398" height="87" viewBox="0 0 398 87" fill="none" xmlns="http://www.w3.org/2000/svg">
<path fill-rule="evenodd" clip-rule="evenodd" d="M0.990616 50.3826C22.4562 29.749 65.9698 16.853 87.3522 42.4786C87.5186 48.7186 86.3538 55.2083 83.6082 61.2819C57.4834 27.5027 31.4418 32.1619 0.990616 51.5475L1.15702 51.4642C1.07382 51.0482 1.07382 50.7154 0.990616 50.3826ZM0.990616 51.5475C-0.506984 52.4627 0.241816 52.0467 0.990616 51.5475V51.5475Z" fill="#5498D0"/>
<path fill-rule="evenodd" clip-rule="evenodd" d="M49.5798 25.3389C52.3254 24.0909 62.6422 20.5965 70.7958 21.5117C59.7302 7.78366 39.8454 4.37246 24.703 14.1069C15.4678 20.0973 9.89339 29.6653 8.81179 39.8157C5.56699 41.9789 2.65499 44.1421 0.242192 46.1389C-0.673008 30.9965 6.48219 15.7709 20.127 6.95166C40.3446 -6.02754 67.2182 -0.203547 80.1974 20.0141C82.4438 23.5085 84.191 27.2525 85.2726 31.0797C76.8694 26.2541 59.647 22.3437 49.5798 25.3389ZM9.31099 50.6317C10.143 54.7085 11.7238 58.7853 14.1366 62.4461C20.7094 72.6797 31.6918 79.0861 43.007 78.5037C72.2934 77.0893 71.4614 45.8061 36.0182 41.3133C67.551 37.8189 86.4374 70.2668 63.4742 82.0812C43.7558 92.2316 19.2118 85.9917 6.98139 66.9389C4.56859 63.1949 2.82139 59.2012 1.65659 55.1245C4.15259 53.71 6.73179 52.1293 9.31099 50.6317Z" fill="white"/>
<path fill-rule="evenodd" clip-rule="evenodd" d="M103.576 26.5039H110.066V54.5423H119.634V60.7823H103.576V26.5039ZM126.29 26.5039H132.779V60.7823H126.29V26.5039ZM173.797 32.0783L169.221 36.6543C166.309 33.5759 162.898 32.0783 159.071 32.0783C155.743 32.0783 152.914 33.1599 150.584 35.4063C148.338 37.6527 147.173 40.3151 147.173 43.5599C147.173 46.8879 148.338 49.6335 150.751 51.9631C153.08 54.2927 155.992 55.3743 159.487 55.3743C161.733 55.3743 163.647 54.8751 165.144 53.9599C166.725 53.0447 167.973 51.5471 168.888 49.5503H158.987V43.4767H176.21L176.293 44.8911C176.293 47.8863 175.544 50.7151 173.963 53.3775C172.383 56.0399 170.386 58.1199 167.89 59.5343C165.394 60.9487 162.482 61.6143 159.154 61.6143C155.576 61.6143 152.415 60.8655 149.669 59.2847C146.84 57.7039 144.677 55.5407 143.013 52.7119C141.432 49.8831 140.6 46.8047 140.6 43.4767C140.6 38.9839 142.098 34.9903 145.093 31.6623C148.671 27.6687 153.247 25.6719 158.987 25.6719C161.983 25.6719 164.728 26.2543 167.391 27.3359C169.554 28.1679 171.717 29.8319 173.797 32.0783ZM184.28 26.5039H190.936V39.3999H202.418V26.5039H208.991V60.7823H202.418V45.7231H190.936V60.7823H184.28V26.5039ZM215.48 26.5039H234.45V32.9103H228.21V60.6991H221.554V32.9103H215.48V26.5039Z" fill="white"/>
<path fill-rule="evenodd" clip-rule="evenodd" d="M279.877 32.1619L277.214 34.6579C275.301 32.7443 273.221 31.3299 270.891 30.4147C268.645 29.4163 266.398 29.0003 264.235 29.0003C261.573 29.0003 258.993 29.6659 256.581 30.9971C254.168 32.3283 252.254 34.0755 250.923 36.4051C249.592 38.6515 248.926 41.0643 248.926 43.5603C248.926 46.1395 249.592 48.5523 251.006 50.8819C252.421 53.2115 254.334 55.0419 256.747 56.3731C259.16 57.7043 261.905 58.3699 264.734 58.3699C268.229 58.3699 271.224 57.3715 273.72 55.3747C276.133 53.3779 277.63 50.7987 278.046 47.6371H267.064V44.3091H281.873C281.873 49.6339 280.293 53.7939 277.131 56.8723C273.969 59.9507 269.809 61.5315 264.651 61.5315C258.328 61.5315 253.253 59.3683 249.592 55.0419C246.763 51.7139 245.349 47.8867 245.349 43.4771C245.349 40.2323 246.181 37.2371 247.761 34.4083C249.425 31.5795 251.672 29.4163 254.501 27.8355C257.329 26.2547 260.574 25.5059 264.152 25.5059C267.064 25.5059 269.809 26.0051 272.389 27.0867C274.885 28.2515 277.381 29.9155 279.877 32.1619ZM287.614 25.5891H290.859V60.6995H287.614V25.5891ZM309.912 34.7411C313.822 34.7411 317.067 36.1555 319.646 38.9843C321.976 41.5635 323.141 44.5587 323.141 48.1363C323.141 51.6307 321.893 54.7091 319.397 57.3715C316.901 60.0339 313.739 61.3651 309.912 61.3651C306.001 61.3651 302.84 60.0339 300.344 57.3715C297.848 54.7091 296.6 51.6307 296.6 48.1363C296.6 44.6419 297.765 41.5635 300.094 39.0675C302.757 36.1555 306.001 34.7411 309.912 34.7411ZM309.912 37.9859C307.166 37.9859 304.92 38.9843 302.923 40.9811C301.009 42.9779 300.011 45.3907 300.011 48.2195C300.011 50.0499 300.427 51.7139 301.342 53.2947C302.257 54.8755 303.422 56.1235 304.92 56.9555C306.417 57.7875 308.081 58.2035 309.912 58.2035C311.742 58.2035 313.406 57.7875 314.904 56.9555C316.401 56.1235 317.649 54.8755 318.481 53.2947C319.397 51.7139 319.813 50.0499 319.813 48.2195C319.813 45.3907 318.814 42.9779 316.901 40.9811C314.904 38.9843 312.657 37.9859 309.912 37.9859ZM329.713 60.6995V25.5891H332.958V39.7331C334.289 38.0691 335.87 36.8211 337.534 35.9891C339.198 35.1571 341.112 34.7411 343.109 34.7411C346.686 34.7411 349.765 36.0723 352.261 38.6515C354.757 41.2307 356.088 44.3923 356.088 48.1363C356.088 51.7971 354.84 54.8755 352.261 57.4547C349.681 60.0339 346.603 61.3651 343.025 61.3651C340.945 61.3651 339.115 60.9491 337.451 60.0339C335.787 59.1187 334.289 57.8707 333.041 56.0403V60.6995H329.713ZM342.776 58.2035C344.606 58.2035 346.27 57.7875 347.768 56.8723C349.265 55.9571 350.513 54.7091 351.429 53.1283C352.344 51.5475 352.76 49.8003 352.76 48.0531C352.76 46.3059 352.344 44.5587 351.429 42.8947C350.513 41.3139 349.265 39.9827 347.768 39.1507C346.187 38.2355 344.606 37.8195 342.859 37.8195C341.112 37.8195 339.365 38.2355 337.784 39.1507C336.203 40.0659 334.955 41.3139 334.123 42.8115C333.291 44.3091 332.875 46.0563 332.875 47.9699C332.875 50.8819 333.873 53.2947 335.787 55.2915C337.534 57.2051 339.947 58.2035 342.776 58.2035ZM387.537 35.4067V60.6995H384.293V56.3731C382.961 58.0371 381.381 59.2851 379.717 60.1171C378.053 60.9491 376.139 61.3651 374.142 61.3651C370.565 61.3651 367.486 60.0339 364.99 57.4547C362.494 54.8755 361.163 51.7139 361.163 47.9699C361.163 44.3091 362.411 41.2307 364.99 38.6515C367.569 36.0723 370.648 34.7411 374.225 34.7411C376.305 34.7411 378.136 35.1571 379.883 36.0723C381.547 36.9875 383.045 38.2355 384.293 40.0659V35.4067H387.537ZM374.475 37.9027C372.645 37.9027 370.981 38.3187 369.483 39.2339C367.985 40.1491 366.737 41.3971 365.822 42.9779C364.907 44.5587 364.491 46.3059 364.491 48.0531C364.491 49.8003 364.907 51.5475 365.822 53.1283C366.737 54.7091 367.985 56.0403 369.483 56.8723C371.064 57.7875 372.645 58.2035 374.475 58.2035C376.222 58.2035 377.969 57.7875 379.55 56.8723C381.131 55.9571 382.379 54.7923 383.211 53.2115C384.043 51.7139 384.459 49.9667 384.459 48.0531C384.459 45.1411 383.461 42.7283 381.547 40.7315C379.633 38.9011 377.304 37.9027 374.475 37.9027ZM394.693 25.5891H397.937V60.6995H394.693V25.5891Z" fill="#5498D0"/>
</svg>
