<?xml version="1.0" encoding="UTF-8"?>
<svg id="Layer_1" data-name="Layer 1" xmlns="http://www.w3.org/2000/svg" viewBox="0 0 478.14 104.41">
  <defs>
    <style>
      .cls-1 {
        fill: #3d8aca;
      }

      .cls-1, .cls-2 {
        fill-rule: evenodd;
      }

      .cls-2 {
        fill: #17253e;
      }
    </style>
  </defs>
  <path class="cls-1" d="M1.04,60.51c25.8-24.8,78.1-40.3,103.8-9.5.2,7.5-1.2,15.3-4.5,22.6C68.94,33.01,37.64,38.61,1.04,61.91l.2-.1c-.1-.5-.1-.9-.2-1.3h0ZM1.04,61.91c-.9.6-1.8,1.1,0,0h0Z"/>
  <path class="cls-2" d="M59.44,30.41c3.3-1.5,15.7-5.7,25.5-4.6-13.3-16.5-37.2-20.6-55.4-8.9-11.1,7.2-17.8,18.7-19.1,30.9-3.9,2.6-7.4,5.2-10.3,7.6C-.96,37.21,7.64,18.91,24.04,8.31,48.34-7.29,80.64-.29,96.24,24.01c2.7,4.2,4.8,8.7,6.1,13.3-10.1-5.8-30.8-10.5-42.9-6.9h0ZM11.04,60.81c1,4.9,2.9,9.8,5.8,14.2,7.9,12.3,21.1,20,34.7,19.3,35.2-1.7,34.2-39.3-8.4-44.7,37.9-4.2,60.6,34.8,33,49-23.7,12.2-53.2,4.7-67.9-18.2-2.9-4.5-5-9.3-6.4-14.2,3-1.7,6.1-3.6,9.2-5.4h0Z"/>
  <path class="cls-2" d="M124.34,31.81h7.8v33.7h11.5v7.5h-19.3V31.81h0ZM151.64,31.81h7.8v41.2h-7.8V31.81h0ZM208.74,38.51l-5.5,5.5c-3.5-3.7-7.6-5.5-12.2-5.5-4,0-7.4,1.3-10.2,4-2.7,2.7-4.1,5.9-4.1,9.8s1.4,7.3,4.3,10.1c2.8,2.8,6.3,4.1,10.5,4.1,2.7,0,5-.6,6.8-1.7,1.9-1.1,3.4-2.9,4.5-5.3h-11.9v-7.3h20.7l.1,1.7c0,3.6-.9,7-2.8,10.2-1.9,3.2-4.3,5.7-7.3,7.4s-6.5,2.5-10.5,2.5c-4.3,0-8.1-.9-11.4-2.8-3.4-1.9-6-4.5-8-7.9-1.9-3.4-2.9-7.1-2.9-11.1,0-5.4,1.8-10.2,5.4-14.2,4.3-4.8,9.8-7.2,16.7-7.2,3.6,0,6.9.7,10.1,2,2.6,1,5.2,3,7.7,5.7h0ZM221.34,31.81h8v15.5h13.8v-15.5h7.9v41.2h-7.9v-18.1h-13.8v18.1h-8V31.81h0ZM258.84,31.81h22.8v7.7h-7.5v33.4h-8v-33.4h-7.3v-7.7h0Z"/>
  <path class="cls-2" d="M336.24,38.61l-3.2,3c-2.3-2.3-4.8-4-7.6-5.1-2.7-1.2-5.4-1.7-8-1.7-3.2,0-6.3.8-9.2,2.4-2.9,1.6-5.2,3.7-6.8,6.5-1.6,2.7-2.4,5.6-2.4,8.6s.8,6,2.5,8.8,4,5,6.9,6.6,6.2,2.4,9.6,2.4c4.2,0,7.8-1.2,10.8-3.6,2.9-2.4,4.7-5.5,5.2-9.3h-13.2v-4h17.8c0,6.4-1.9,11.4-5.7,15.1-3.8,3.7-8.8,5.6-15,5.6-7.6,0-13.7-2.6-18.1-7.8-3.4-4-5.1-8.6-5.1-13.9,0-3.9,1-7.5,2.9-10.9,2-3.4,4.7-6,8.1-7.9s7.3-2.8,11.6-2.8c3.5,0,6.8.6,9.9,1.9,3,1.4,6,3.4,9,6.1h0ZM345.54,30.71h3.9v42.2h-3.9V30.71h0ZM372.34,41.71c4.7,0,8.6,1.7,11.7,5.1,2.8,3.1,4.2,6.7,4.2,11s-1.5,7.9-4.5,11.1c-3,3.2-6.8,4.8-11.4,4.8s-8.5-1.6-11.5-4.8-4.5-6.9-4.5-11.1,1.4-7.9,4.2-10.9c3.2-3.5,7.1-5.2,11.8-5.2h0ZM372.34,45.61c-3.3,0-6,1.2-8.4,3.6-2.3,2.4-3.5,5.3-3.5,8.7,0,2.2.5,4.2,1.6,6.1,1.1,1.9,2.5,3.4,4.3,4.4s3.8,1.5,6,1.5,4.2-.5,6-1.5,3.3-2.5,4.3-4.4c1.1-1.9,1.6-3.9,1.6-6.1,0-3.4-1.2-6.3-3.5-8.7-2.4-2.4-5.1-3.6-8.4-3.6h0ZM396.14,72.91V30.71h3.9v17c1.6-2,3.5-3.5,5.5-4.5s4.3-1.5,6.7-1.5c4.3,0,8,1.6,11,4.7,3,3.1,4.6,6.9,4.6,11.4s-1.5,8.1-4.6,11.2c-3.1,3.1-6.8,4.7-11.1,4.7-2.5,0-4.7-.5-6.7-1.6s-3.8-2.6-5.3-4.8v5.6h-4ZM411.84,69.91c2.2,0,4.2-.5,6-1.6s3.3-2.6,4.4-4.5,1.6-4,1.6-6.1-.5-4.2-1.6-6.2c-1.1-1.9-2.6-3.5-4.4-4.5-1.9-1.1-3.8-1.6-5.9-1.6s-4.2.5-6.1,1.6-3.4,2.6-4.4,4.4c-1,1.8-1.5,3.9-1.5,6.2,0,3.5,1.2,6.4,3.5,8.8,2.1,2.3,5,3.5,8.4,3.5h0ZM465.64,42.51v30.4h-3.9v-5.2c-1.6,2-3.5,3.5-5.5,4.5s-4.3,1.5-6.7,1.5c-4.3,0-8-1.6-11-4.7-3-3.1-4.6-6.9-4.6-11.4s1.5-8.1,4.6-11.2c3.1-3.1,6.8-4.7,11.1-4.7,2.5,0,4.7.5,6.8,1.6,2,1.1,3.8,2.6,5.3,4.8v-5.6h3.9ZM449.94,45.51c-2.2,0-4.2.5-6,1.6s-3.3,2.6-4.4,4.5-1.6,4-1.6,6.1.5,4.2,1.6,6.1c1.1,1.9,2.6,3.5,4.4,4.5,1.9,1.1,3.8,1.6,6,1.6s4.2-.5,6.1-1.6,3.4-2.5,4.4-4.4c1-1.8,1.5-3.9,1.5-6.2,0-3.5-1.2-6.4-3.5-8.8-2.3-2.2-5.1-3.4-8.5-3.4h0ZM474.24,30.71h3.9v42.2h-3.9V30.71h0Z"/>
</svg>