<svg width="33" height="33" viewBox="0 0 33 33" fill="none" xmlns="http://www.w3.org/2000/svg">
<path fill-rule="evenodd" clip-rule="evenodd" d="M10.3785 29.7004C22.831 29.7004 29.6422 19.5423 29.6422 10.7343C29.6422 10.4451 29.6422 10.1582 29.6224 9.87225C30.9474 8.93003 32.0908 7.76016 33 6.42159C31.7658 6.96092 30.454 7.31462 29.1126 7.47056C30.525 6.63719 31.5826 5.32793 32.0892 3.78304C30.7593 4.55954 29.3056 5.10757 27.7893 5.40161C25.2252 2.71794 20.9369 2.58791 18.2094 5.11238C16.4522 6.74012 15.7047 9.16706 16.2508 11.482C10.8075 11.2123 5.7354 8.68138 2.2968 4.5178C0.49995 7.56372 1.419 11.4589 4.39395 13.4148C3.3165 13.3839 2.26215 13.0983 1.32 12.5817V12.6663C1.32165 15.8389 3.5937 18.5708 6.7518 19.1994C5.7552 19.4675 4.7091 19.5063 3.696 19.313C4.58205 22.0292 7.1247 23.8896 10.0204 23.9432C7.623 25.7983 4.66125 26.8057 1.61205 26.8025C1.07415 26.8008 0.53625 26.7699 0 26.7066C3.09705 28.6625 6.699 29.7005 10.3785 29.6956" fill="white"/>
</svg>
